<svg width="6" height="7" viewBox="0 0 6 7" fill="none" xmlns="http://www.w3.org/2000/svg">
<path d="M2.99065 6.38892C2.11838 6.38892 1.40187 6.13251 0.841121 5.61969C0.280374 5.09547 0 4.39461 0 3.51712V3.26071C0 2.38322 0.280374 1.68806 0.841121 1.17524C1.40187 0.651024 2.11838 0.388916 2.99065 0.388916C3.87539 0.388916 4.59813 0.651024 5.15888 1.17524C5.71963 1.68806 6 2.38322 6 3.26071V3.51712C6 4.39461 5.71963 5.09547 5.15888 5.61969C4.59813 6.13251 3.87539 6.38892 2.99065 6.38892ZM2.99065 5.2949C3.50156 5.2949 3.91277 5.14675 4.2243 4.85045C4.53583 4.54276 4.69159 4.08692 4.69159 3.48293V3.2949C4.69159 2.69091 4.53583 2.24077 4.2243 1.94447C3.91277 1.63678 3.50156 1.48293 2.99065 1.48293C2.47975 1.48293 2.06854 1.63678 1.75701 1.94447C1.45794 2.24077 1.30841 2.69091 1.30841 3.2949V3.48293C1.30841 4.08692 1.46417 4.54276 1.7757 4.85045C2.08723 5.14675 2.49221 5.2949 2.99065 5.2949Z" fill="black"/>
</svg>
