<svg width="24" height="24" viewBox="0 0 24 24" fill="none" xmlns="http://www.w3.org/2000/svg">
<path d="M14.8289 2.41007C14.8092 2.40395 14.7898 2.39719 14.7702 2.39338C13.8898 2.13902 12.9611 2 12 2C6.48588 2 2 6.48588 2 12C2 17.5141 6.48588 22 11.9998 22C17.5139 22 22 17.5141 22 12C22 7.46849 18.9691 3.63353 14.8289 2.41007ZM11.9998 20.9437C7.06835 20.9437 3.05635 16.9317 3.05635 12C3.05635 7.06856 7.06835 3.05635 11.9998 3.05635C12.866 3.05635 13.7026 3.18247 14.4951 3.41318C16.8364 4.48241 18.5029 6.64919 18.8483 9.08089C19.1308 11.0687 18.3007 13.1744 16.6278 14.714C16.6232 14.7184 16.6196 14.7239 16.615 14.7283C16.6143 14.729 16.6135 14.7294 16.6128 14.73C14.46 16.8826 10.957 16.8831 8.80434 14.73C7.12328 13.0487 7.12328 10.3134 8.80434 8.63216C9.43604 8.00068 10.2756 7.65272 11.1687 7.65272C12.0617 7.65272 12.9013 8.00046 13.5328 8.63216C14.018 9.11744 14.2855 9.76266 14.2855 10.4491C14.2855 11.1355 14.018 11.7805 13.5328 12.266C12.7726 13.0261 11.5356 13.0261 10.7753 12.266C10.2693 11.76 10.215 10.9709 10.6122 10.4039C10.5021 10.601 10.4436 10.8239 10.4436 11.0558C10.4436 11.4137 10.583 11.7505 10.8359 12.0034C11.1272 12.2949 11.5149 12.4557 11.9271 12.4557C12.3395 12.4557 12.727 12.2949 13.0181 12.0036C13.3574 11.6643 13.5444 11.213 13.5444 10.733C13.5444 10.253 13.3574 9.80174 13.0181 9.46245C12.6188 9.06315 12.0881 8.84322 11.5234 8.84301C10.9587 8.84301 10.4277 9.06315 10.0286 9.46245C9.04984 10.4413 9.04984 12.034 10.0286 13.0128C11.2008 14.1849 13.1081 14.1849 14.2798 13.0128C14.9647 12.3281 15.3419 11.4175 15.3419 10.4491C15.3419 9.48062 14.9647 8.57005 14.2798 7.88532C13.4489 7.05419 12.3439 6.59637 11.1687 6.59637C9.99337 6.59637 8.88843 7.05419 8.0573 7.88532C5.96446 9.97816 5.96446 13.3838 8.0573 15.4769C9.3397 16.7593 11.0239 17.4002 12.7086 17.4002C14.393 17.4002 16.0775 16.7593 17.3599 15.4769C17.3624 15.4743 17.3639 15.4716 17.3662 15.469C19.2789 13.6959 20.2239 11.2551 19.8943 8.93237C19.7901 8.19948 19.5797 7.48877 19.281 6.81567C20.3261 8.27934 20.9437 10.0684 20.9437 12C20.9437 16.9317 16.9314 20.9437 11.9998 20.9437ZM11.5832 10.1085C11.4801 10.0052 11.3449 9.95365 11.2094 9.95365C11.2014 9.95365 11.1936 9.95386 11.1858 9.95407C11.2931 9.91815 11.4068 9.89935 11.5234 9.89935C11.8058 9.89935 12.0714 10.0094 12.2713 10.2093C12.4111 10.3491 12.488 10.5351 12.488 10.7328C12.488 10.9306 12.4111 11.1165 12.2711 11.2565C12.0875 11.4403 11.767 11.4406 11.583 11.2563C11.5295 11.2027 11.4999 11.1315 11.4999 11.0556C11.4999 10.98 11.5293 10.9088 11.583 10.8553C11.7892 10.6494 11.7894 10.3149 11.5832 10.1085Z" fill="black"/>
</svg>
