<svg width="20" height="21" viewBox="0 0 20 21" fill="none" xmlns="http://www.w3.org/2000/svg">
<path d="M7.08268 18.8056L9.99935 15.889L12.916 18.8056M7.49935 10.889V12.5556M9.99935 9.22229V12.5556M12.4993 7.55562V12.5556M18.3327 4.72229V15.389C18.3327 15.4546 18.3197 15.5196 18.2946 15.5803C18.2695 15.641 18.2327 15.6961 18.1862 15.7425C18.1398 15.7889 18.0847 15.8258 18.024 15.8509C17.9634 15.876 17.8983 15.889 17.8327 15.889H2.16602C2.03341 15.889 1.90623 15.8363 1.81246 15.7425C1.71869 15.6487 1.66602 15.5216 1.66602 15.389V4.72229C1.66602 4.58968 1.71869 4.4625 1.81246 4.36874C1.90623 4.27497 2.03341 4.22229 2.16602 4.22229H17.8327C17.9653 4.22229 18.0925 4.27497 18.1862 4.36874C18.28 4.4625 18.3327 4.58968 18.3327 4.72229Z" stroke="#F25D07" stroke-width="1.25" stroke-linecap="round" stroke-linejoin="round"/>
</svg>
