<svg width="20" height="21" viewBox="0 0 20 21" fill="none" xmlns="http://www.w3.org/2000/svg">
<path d="M12.4999 5.88892L14.9999 8.38892M4.99988 18.3889L17.4999 5.88892L14.9999 3.38892L2.49988 15.8889L4.99988 18.3889ZM7.49988 3.38892C7.49988 3.83094 7.67547 4.25487 7.98803 4.56743C8.30059 4.87999 8.72452 5.05558 9.16654 5.05558C8.72452 5.05558 8.30059 5.23118 7.98803 5.54374C7.67547 5.8563 7.49988 6.28022 7.49988 6.72225C7.49988 6.28022 7.32428 5.8563 7.01172 5.54374C6.69916 5.23118 6.27524 5.05558 5.83321 5.05558C6.27524 5.05558 6.69916 4.87999 7.01172 4.56743C7.32428 4.25487 7.49988 3.83094 7.49988 3.38892ZM15.8332 11.7222C15.8332 12.1643 16.0088 12.5882 16.3214 12.9008C16.6339 13.2133 17.0579 13.3889 17.4999 13.3889C17.0579 13.3889 16.6339 13.5645 16.3214 13.8771C16.0088 14.1896 15.8332 14.6136 15.8332 15.0556C15.8332 14.6136 15.6576 14.1896 15.3451 13.8771C15.0325 13.5645 14.6086 13.3889 14.1665 13.3889C14.6086 13.3889 15.0325 13.2133 15.3451 12.9008C15.6576 12.5882 15.8332 12.1643 15.8332 11.7222Z" stroke="#F25D07" stroke-width="1.66667" stroke-linecap="round" stroke-linejoin="round"/>
</svg>
